<?xml version="1.0" encoding="UTF-8" standalone="no"?>
<!-- Created with Inkscape (http://www.inkscape.org/) -->

<svg
   version="1.1"
   id="svg1"
   width="1011.558"
   height="991.0365"
   viewBox="0 0 1011.558 991.0365"
   xmlns="http://www.w3.org/2000/svg"
   xmlns:svg="http://www.w3.org/2000/svg">
  <defs
     id="defs1" />
  <g
     id="g1"
     transform="translate(-870.08404,-282.66263)">
    <ellipse
       style="fill:#ffffff;fill-opacity:1;stroke:#44aa00;stroke-width:26.525;stroke-linecap:butt;stroke-linejoin:bevel;stroke-dasharray:none;stroke-opacity:1"
       id="path16"
       cx="1375.863"
       cy="778.18085"
       rx="492.51651"
       ry="482.25571" />
    <ellipse
       style="fill:#000000;stroke:#000000;stroke-opacity:1"
       id="path1"
       cx="1481.871"
       cy="856.01678"
       rx="3.548414"
       ry="2.1930404" />
    <path
       id="path4"
       style="baseline-shift:baseline;display:inline;overflow:visible;opacity:1;vector-effect:none;fill:#44aa00;stroke-linecap:round;enable-background:accumulate;stop-color:#000000;stop-opacity:1"
       d="m 1362.584,381.08398 c -139.8312,9.3e-4 -244.4102,97.75288 -244.4102,232.04493 0,55.9171 15.253,103.34321 48.0918,138.76562 32.8389,35.42241 81.1757,57.80907 143.8262,70.83789 l 0.094,0.0195 73.2793,14.60743 c 36.4044,8.20662 67.8793,22.27422 88.8868,39.34765 21.035,17.09581 31.3867,35.52183 31.3867,57.07813 0,31.57561 -12.5875,55.19694 -35.2676,72.97467 -22.6801,17.7776 -56.416,28.8691 -97.0664,28.8691 -59.4462,0 -112.1727,-22.7781 -183.0371,-83.83401 l -0.461,-0.39453 -0.4804,-0.37109 c 0,0 -10.8598,-8.81753 -26.8887,-12.4961 -16.0289,-3.67856 -41.7239,0.70844 -57.3672,21.60742 -17.2494,23.0453 -17.0598,49.26621 -11.4316,66.30471 5.5071,16.6719 15.4797,27.5186 15.9121,27.9844 65.0534,73.8737 160.1081,112.8887 266.2754,112.8887 146.8046,0 262.0508,-106.9044 262.0508,-245.22273 0,-56.68487 -15.6162,-104.87448 -49.2246,-140.99218 -33.6085,-36.11771 -83.1219,-59.21335 -147.6192,-72.98047 l -0.01,-0.002 -103.4335,-21.98828 -0.1036,-0.0215 c -37.6804,-7.64584 -59.7382,-17.8798 -71.2968,-29.26563 -11.5586,-11.38582 -16.3985,-25.16347 -16.3985,-51.03906 0,-29.45906 10.212,-50.64754 28.541,-66.19141 18.329,-15.54386 46.1631,-25.375 82.3711,-25.375 60.1213,0 117.2254,20.80764 178.418,71.00586 l 0.029,0.0234 0.029,0.0254 c 0,0 12.2273,10.60779 30.5625,14.83985 9.1675,2.11602 20.7723,2.65654 32.5547,-1.78516 11.7825,-4.44171 22.6179,-13.85105 30.3711,-26.80273 16.2057,-27.07166 12.0513,-55.40844 2.291,-72.1211 -8.4453,-14.46105 -19.6305,-22.54863 -22.6387,-24.57422 -80.6227,-63.33354 -158.6355,-93.76713 -247.834,-93.76758 z m 0,45.29688 c 7.2751,0 14.433,0.21081 21.4922,0.63867 -4.5406,1.0604 -8.9307,2.2177 -13.1172,3.47266 -35.9059,10.763 -81.9337,37.42837 -103.4472,54.13867 -10.2392,7.95321 -18.7779,16.81843 -26.0821,25.5918 -24.7603,23.83688 -38.8359,57.58422 -38.8359,95.58398 0,32.69661 8.3897,62.1156 29.9063,83.31055 21.5165,21.19494 52.3778,32.92518 94.0781,41.38672 l 103.1152,21.92187 c 58.9742,12.59059 98.9169,32.69055 123.8965,59.53516 24.9822,26.84737 37.0879,61.3898 37.0879,110.13476 0,93.1005 -61.4496,167.9409 -152.6856,191.8711 19.1265,-12.2972 36.0986,-28.4781 50.2559,-46.4707 11.937,-15.1708 21.4087,-30.5332 29.7148,-46.0801 19.5822,-23.74844 31.0704,-53.99707 31.0704,-87.63084 0,-37.01585 -19.6328,-69.0835 -48.1133,-92.23047 -28.4806,-23.14697 -65.9997,-39.05413 -107.6563,-48.42383 l -0.2715,-0.0606 -73.6816,-14.68554 c -57.0485,-11.86435 -95.6524,-31.20936 -119.8281,-57.28711 -24.1763,-26.07835 -36.0117,-59.92028 -36.0117,-107.96875 0,-111.71033 79.3837,-186.74805 199.1132,-186.74805 z m 99.3086,30.03711 c 8.6739,-0.14102 16.5053,0.0856 22.7266,0.71094 9.8173,0.98685 17.4259,2.59425 23.9355,4.70898 24.2703,12.61966 48.7513,28.83679 74.3809,49.01367 l 0.873,0.6875 0.9356,0.59766 c 0,0 5.5245,3.8406 9.1992,10.13281 3.6747,6.29221 6.7144,11.38582 -2.041,26.01172 -3.6138,6.03686 -5.9304,7.09851 -7.4824,7.68359 -1.5521,0.58508 -3.4626,0.70909 -6.3907,0.0332 -5.8562,-1.35174 -12.1386,-5.82227 -12.1386,-5.82227 l 0.059,0.0488 c -62.5006,-51.27118 -126.3546,-77.396 -191.9219,-80.87891 2.755,-1.03173 5.3644,-1.92338 7.7832,-2.64843 20.4566,-6.13208 54.0603,-9.85625 80.082,-10.2793 z m 221.7696,88.43945 c -4.3111,0.10038 -8.5198,1.33375 -12.2032,3.57617 -11.5888,7.05618 -15.2632,22.17097 -8.207,33.75977 79.9175,131.24615 74.9985,249.23255 2.75,371.67969 -6.8949,11.68535 -3.0115,26.74759 8.6738,33.64257 11.6854,6.89488 26.7476,3.01149 33.6426,-8.67382 79.1971,-134.22361 84.4899,-278.35552 -3.0996,-422.20118 -4.5648,-7.49644 -12.7821,-11.98816 -21.5566,-11.7832 z m -615.8106,0.4336 c -8.7745,-0.20496 -16.6748,4.48924 -21.5566,11.7832 -78.28526,116.96661 -92.33197,231.73261 -17.6464,379.39569 6.1237,12.10731 21.9572,15.56864 33.6425,8.67383 11.6853,-6.89488 14.3776,-21.33186 8.6739,-33.64258 -62.1398,-134.1218 -62.6207,-219.33805 17.2968,-328.87421 7.0562,-11.58882 3.3818,-26.70362 -8.2071,-33.75976 -3.6833,-2.2424 -7.892,-3.47578 -12.2031,-3.57617 z m 551.6504,68.65625 c -4.3077,0.20274 -8.486,1.53582 -12.1152,3.86523 -11.4181,7.32823 -14.7339,22.5249 -7.4063,33.94336 31.3644,48.87018 38.2105,111.50435 28.7188,164.58984 0.01,0.012 0.012,0.0251 0.018,0.0371 12.12,24.9391 18.6588,52.29863 21.0117,79.86328 4.0235,-2.5962 7.2006,-6.31163 9.1406,-10.68945 32.8848,-74.19394 35.258,-178.07248 -17.5391,-260.33789 -4.7402,-7.38655 -13.061,-11.68319 -21.8281,-11.27148 z m -514.0098,16.46289 c -45.6191,80.2882 -48.225,153.31203 -12.7082,232.38483 5.4975,12.40431 20.0098,18.00337 32.4141,12.50586 12.4054,-5.49754 18.0046,-20.01122 12.5058,-32.41602 -23.7582,-52.01368 -22.0559,-76.70965 -11.696,-127.44928 -0.2488,-0.52476 -0.4946,-1.04907 -0.7383,-1.57617 -11.7132,-25.30117 -17.7298,-52.96786 -19.6016,-80.70508 -0.063,-0.91449 -0.1213,-1.82896 -0.1758,-2.74414 z m 40.334,351.20312 c 1.2377,-0.0614 2.4937,0.59239 4.5762,1.07031 4.6858,1.07537 9.1067,4.0485 9.2461,4.14258 74.9388,64.36463 140.4309,94.09963 211.7539,94.09963 19.9047,0 38.9702,-2.1749 56.7695,-6.4766 -13.5528,10.5099 -28.1842,18.3707 -42.709,22.3184 -22.3864,6.0844 -71.7144,8.3046 -117.9433,9.334 -49.5689,-15.9084 -92.4115,-43.5157 -126.0664,-81.8125 l -0.1817,-0.2071 -0.1875,-0.2011 c 0,0 -3.9742,-4.4949 -6.3359,-11.6446 -2.3617,-7.1496 -3.7433,-13.6928 4.6836,-24.95114 3.2429,-4.33241 4.8033,-5.593 6.3945,-5.67188 z" />
  </g>
</svg>
